<svg width="504" height="470" viewBox="0 0 504 470" fill="none" xmlns="http://www.w3.org/2000/svg">
<path fill-rule="evenodd" clip-rule="evenodd" d="M259.732 3.59335L315.015 67.2199C317.378 69.9393 320.975 71.2487 324.533 70.6843L407.781 57.4786C414.049 56.4842 419.748 61.266 419.857 67.612L421.308 151.888C421.37 155.49 423.284 158.805 426.373 160.66L498.632 204.054C504.074 207.322 505.365 214.648 501.37 219.58L448.31 285.071C446.042 287.87 445.377 291.641 446.551 295.046L474.012 374.736C476.079 380.737 472.36 387.179 466.129 388.389L383.386 404.452C379.849 405.138 376.916 407.599 375.626 410.963L345.439 463.807C343.166 469.733 337.191 469.199 330.625 469.199H173.075C167.073 469.199 160.534 469.733 158.261 463.807L128.074 410.963C126.783 407.599 123.851 405.138 120.314 404.452L37.5706 388.389C31.3399 387.179 27.6204 380.737 29.6882 374.736L57.149 295.046C58.3227 291.641 57.6579 287.87 55.3901 285.071L2.32993 219.58C-1.66554 214.648 -0.373759 207.322 5.06746 204.054L77.3271 160.66C80.4155 158.805 82.3297 155.49 82.3917 151.888L83.8424 67.612C83.9517 61.266 89.6503 56.4842 95.9189 57.4786L179.166 70.6843C182.724 71.2487 186.322 69.9393 188.685 67.2199L243.967 3.59335C248.13 -1.19779 255.569 -1.19778 259.732 3.59335ZM292.694 128.547L259.732 90.6105C255.569 85.8194 248.13 85.8194 243.967 90.6105L211.006 128.547C208.643 131.266 205.045 132.576 201.487 132.011L151.852 124.138C145.584 123.143 139.885 127.925 139.776 134.271L138.911 184.519C138.849 188.121 136.934 191.437 133.846 193.291L90.7623 219.165C85.3211 222.432 84.0293 229.758 88.0248 234.69L119.661 273.738C121.929 276.537 122.594 280.308 121.42 283.714L105.047 331.227C102.979 337.228 106.699 343.671 112.929 344.88L162.264 354.458C165.8 355.144 168.733 357.605 170.023 360.968L188.022 407.891C190.121 413.363 195.709 413.326 201.417 413.289C201.89 413.286 202.364 413.282 202.836 413.282H246.785H256.914H300.863C301.347 413.282 301.83 413.286 302.311 413.289C308.103 413.326 313.578 413.362 315.677 407.891L333.676 360.968C334.966 357.605 337.899 355.144 341.435 354.458L390.77 344.88C397.001 343.671 400.72 337.228 398.652 331.227L382.279 283.714C381.105 280.308 381.77 276.537 384.038 273.738L415.674 234.69C419.67 229.758 418.378 222.432 412.937 219.165L369.853 193.291C366.765 191.437 364.85 188.121 364.788 184.519L363.924 134.271C363.814 127.925 358.116 123.143 351.847 124.138L302.212 132.011C298.654 132.576 295.056 131.266 292.694 128.547Z" fill="white"/>
</svg>
